<svg xmlns="http://www.w3.org/2000/svg" xmlns:xlink="http://www.w3.org/1999/xlink" width="205" zoomAndPan="magnify" viewBox="0 0 153.75 126.749998" height="169" preserveAspectRatio="xMidYMid meet" version="1.0"><defs><g/><clipPath id="602e347c67"><path d="M 3.636719 43.390625 L 122.21875 43.390625 L 122.21875 126.160156 L 3.636719 126.160156 Z M 3.636719 43.390625 " clip-rule="nonzero"/></clipPath></defs><path fill="#0f2b92" d="M 53.789062 75.984375 C 54.183594 75.988281 54.570312 75.949219 54.953125 75.875 C 55.339844 75.804688 55.710938 75.691406 56.074219 75.542969 C 56.4375 75.394531 56.78125 75.214844 57.105469 75 C 57.433594 74.78125 57.734375 74.535156 58.011719 74.261719 C 58.289062 73.984375 58.539062 73.683594 58.753906 73.359375 C 58.972656 73.035156 59.15625 72.691406 59.308594 72.332031 C 59.457031 71.96875 59.570312 71.597656 59.648438 71.214844 C 59.726562 70.832031 59.761719 70.441406 59.761719 70.050781 C 59.761719 69.660156 59.726562 69.269531 59.648438 68.886719 C 59.574219 68.5 59.460938 68.128906 59.308594 67.765625 C 59.160156 67.402344 58.976562 67.058594 58.757812 66.730469 C 58.542969 66.40625 58.292969 66.105469 58.015625 65.828125 C 57.738281 65.550781 57.4375 65.300781 57.109375 65.082031 C 56.785156 64.867188 56.441406 64.683594 56.078125 64.53125 C 55.714844 64.382812 55.339844 64.269531 54.957031 64.191406 C 54.570312 64.117188 54.183594 64.078125 53.789062 64.078125 C 53.398438 64.078125 53.011719 64.117188 52.628906 64.195312 C 52.246094 64.269531 51.871094 64.382812 51.511719 64.535156 C 51.148438 64.683594 50.808594 64.867188 50.480469 65.085938 C 50.15625 65.304688 49.855469 65.554688 49.582031 65.832031 C 49.304688 66.109375 49.058594 66.410156 48.84375 66.734375 C 48.628906 67.0625 48.445312 67.40625 48.296875 67.769531 C 48.148438 68.132812 48.039062 68.503906 47.964844 68.886719 C 47.890625 69.273438 47.855469 69.660156 47.859375 70.050781 C 47.855469 70.441406 47.890625 70.828125 47.964844 71.210938 C 48.042969 71.59375 48.152344 71.964844 48.300781 72.328125 C 48.449219 72.6875 48.632812 73.03125 48.847656 73.355469 C 49.0625 73.679688 49.308594 73.980469 49.585938 74.257812 C 49.863281 74.53125 50.160156 74.777344 50.488281 74.996094 C 50.8125 75.210938 51.152344 75.394531 51.515625 75.542969 C 51.875 75.691406 52.246094 75.800781 52.632812 75.875 C 53.015625 75.949219 53.402344 75.984375 53.789062 75.984375 " fill-opacity="1" fill-rule="nonzero"/><path fill="#0f2b92" d="M 70.742188 99.179688 C 70.15625 99.179688 69.582031 99.269531 69.019531 99.4375 C 68.460938 99.609375 67.933594 99.859375 67.445312 100.183594 C 66.957031 100.511719 66.527344 100.898438 66.152344 101.351562 C 65.777344 101.804688 65.476562 102.300781 65.25 102.84375 L 76.199219 102.84375 C 75.96875 102.304688 75.667969 101.8125 75.296875 101.363281 C 74.925781 100.914062 74.496094 100.527344 74.011719 100.203125 C 73.53125 99.878906 73.007812 99.628906 72.453125 99.453125 C 71.894531 99.28125 71.328125 99.1875 70.742188 99.179688 " fill-opacity="1" fill-rule="nonzero"/><path fill="#0f2b92" d="M 102.355469 111.121094 C 102.746094 111.125 103.136719 111.089844 103.519531 111.015625 C 103.902344 110.941406 104.277344 110.832031 104.640625 110.683594 C 105 110.535156 105.34375 110.355469 105.671875 110.136719 C 105.996094 109.921875 106.300781 109.675781 106.578125 109.398438 C 106.855469 109.125 107.101562 108.824219 107.320312 108.5 C 107.539062 108.175781 107.722656 107.832031 107.875 107.46875 C 108.023438 107.109375 108.136719 106.738281 108.214844 106.351562 C 108.289062 105.96875 108.328125 105.582031 108.328125 105.191406 C 108.328125 104.796875 108.292969 104.410156 108.214844 104.023438 C 108.140625 103.640625 108.027344 103.265625 107.875 102.90625 C 107.726562 102.542969 107.542969 102.199219 107.324219 101.871094 C 107.105469 101.542969 106.859375 101.242188 106.582031 100.964844 C 106.304688 100.6875 106.003906 100.441406 105.675781 100.222656 C 105.351562 100.003906 105.003906 99.820312 104.644531 99.671875 C 104.28125 99.519531 103.90625 99.410156 103.523438 99.332031 C 103.136719 99.257812 102.75 99.21875 102.355469 99.21875 C 101.964844 99.21875 101.574219 99.257812 101.191406 99.332031 C 100.804688 99.410156 100.433594 99.519531 100.070312 99.671875 C 99.707031 99.820312 99.363281 100.003906 99.035156 100.222656 C 98.710938 100.441406 98.410156 100.6875 98.132812 100.964844 C 97.855469 101.242188 97.605469 101.542969 97.386719 101.871094 C 97.171875 102.199219 96.988281 102.542969 96.835938 102.90625 C 96.6875 103.265625 96.574219 103.640625 96.496094 104.023438 C 96.421875 104.410156 96.382812 104.796875 96.382812 105.191406 C 96.382812 105.582031 96.421875 105.96875 96.5 106.351562 C 96.574219 106.738281 96.6875 107.109375 96.839844 107.46875 C 96.988281 107.832031 97.171875 108.175781 97.390625 108.5 C 97.609375 108.824219 97.859375 109.125 98.136719 109.398438 C 98.414062 109.675781 98.714844 109.921875 99.039062 110.136719 C 99.367188 110.355469 99.710938 110.535156 100.074219 110.683594 C 100.4375 110.832031 100.808594 110.941406 101.191406 111.015625 C 101.578125 111.089844 101.964844 111.125 102.355469 111.121094 " fill-opacity="1" fill-rule="nonzero"/><path fill="#0f2b92" d="M 110.484375 66.875 C 110.070312 66.875 109.667969 66.957031 109.285156 67.117188 C 108.898438 67.277344 108.5625 67.503906 108.265625 67.796875 C 107.972656 68.09375 107.75 68.433594 107.589844 68.820312 C 107.433594 69.207031 107.355469 69.605469 107.359375 70.023438 C 107.355469 70.4375 107.433594 70.835938 107.59375 71.222656 C 107.75 71.605469 107.976562 71.945312 108.269531 72.238281 C 108.5625 72.53125 108.902344 72.757812 109.285156 72.914062 C 109.671875 73.070312 110.070312 73.148438 110.484375 73.148438 C 110.902344 73.148438 111.300781 73.070312 111.6875 72.914062 C 112.070312 72.757812 112.410156 72.53125 112.707031 72.238281 C 113 71.945312 113.230469 71.605469 113.386719 71.222656 C 113.546875 70.839844 113.628906 70.4375 113.628906 70.023438 C 113.628906 69.605469 113.550781 69.203125 113.390625 68.820312 C 113.230469 68.433594 113.003906 68.09375 112.707031 67.796875 C 112.414062 67.503906 112.074219 67.273438 111.6875 67.117188 C 111.304688 66.957031 110.902344 66.875 110.484375 66.875 " fill-opacity="1" fill-rule="nonzero"/><g clip-path="url(#602e347c67)"><path fill="#0f2b92" d="M 83.878906 58.425781 C 83.878906 57.800781 83.765625 57.195312 83.542969 56.613281 C 84.21875 55.308594 84.554688 53.921875 84.554688 52.457031 C 84.554688 51.859375 84.496094 51.269531 84.378906 50.6875 C 84.261719 50.101562 84.089844 49.535156 83.863281 48.984375 C 83.632812 48.4375 83.355469 47.914062 83.023438 47.417969 C 82.691406 46.925781 82.316406 46.464844 81.894531 46.046875 C 81.476562 45.625 81.015625 45.25 80.523438 44.917969 C 80.027344 44.585938 79.503906 44.308594 78.957031 44.078125 C 78.40625 43.851562 77.839844 43.679688 77.253906 43.5625 C 76.671875 43.445312 76.082031 43.386719 75.484375 43.386719 C 74.496094 43.390625 73.535156 43.546875 72.597656 43.867188 C 71.664062 44.183594 70.800781 44.640625 70.015625 45.238281 C 69.226562 45.835938 68.554688 46.542969 68 47.363281 C 67.445312 48.179688 67.035156 49.0625 66.765625 50.015625 C 66.648438 50.007812 66.53125 50 66.410156 50 L 59.761719 50 C 58.878906 49.996094 58.050781 50.214844 57.28125 50.644531 C 56.507812 51.074219 55.890625 51.667969 55.429688 52.421875 C 54.890625 52.371094 54.34375 52.347656 53.789062 52.347656 C 52.003906 52.347656 50.261719 52.609375 48.554688 53.140625 C 46.851562 53.671875 45.265625 54.445312 43.796875 55.464844 C 43.554688 55.234375 43.289062 55.035156 43.003906 54.859375 L 37.273438 51.316406 C 36.457031 50.808594 35.566406 50.554688 34.605469 50.550781 C 33.722656 50.550781 32.894531 50.765625 32.125 51.195312 C 31.355469 51.621094 30.738281 52.210938 30.273438 52.960938 L 24.527344 62.257812 L 18.777344 52.964844 C 18.316406 52.214844 17.699219 51.625 16.929688 51.195312 C 16.15625 50.765625 15.332031 50.554688 14.449219 50.554688 C 13.488281 50.554688 12.597656 50.808594 11.78125 51.316406 L 6.050781 54.859375 C 5.476562 55.214844 4.992188 55.664062 4.597656 56.210938 C 4.203125 56.757812 3.929688 57.359375 3.773438 58.015625 C 3.617188 58.671875 3.59375 59.332031 3.703125 60 C 3.8125 60.664062 4.042969 61.285156 4.398438 61.859375 L 20.097656 87.25 L 15.636719 89.242188 C 15.335938 89.378906 15.046875 89.542969 14.773438 89.734375 C 14.503906 89.925781 14.253906 90.140625 14.023438 90.382812 C 13.796875 90.625 13.59375 90.886719 13.414062 91.167969 C 13.234375 91.445312 13.085938 91.742188 12.96875 92.050781 C 12.847656 92.363281 12.757812 92.679688 12.703125 93.007812 C 12.644531 93.335938 12.621094 93.667969 12.625 94 C 12.632812 94.332031 12.671875 94.660156 12.746094 94.984375 C 12.816406 95.308594 12.921875 95.625 13.054688 95.925781 L 24.359375 121.6875 C 24.558594 122.136719 24.816406 122.550781 25.136719 122.929688 C 25.457031 123.304688 25.824219 123.628906 26.234375 123.898438 C 26.648438 124.167969 27.09375 124.375 27.566406 124.515625 C 28.039062 124.65625 28.523438 124.726562 29.015625 124.726562 C 29.507812 124.726562 29.992188 124.65625 30.464844 124.515625 C 30.941406 124.375 31.382812 124.167969 31.796875 123.898438 C 32.210938 123.628906 32.574219 123.304688 32.894531 122.925781 C 33.214844 122.550781 33.472656 122.132812 33.671875 121.683594 L 37.296875 113.40625 L 40.921875 121.683594 C 41.121094 122.132812 41.378906 122.550781 41.695312 122.925781 C 42.015625 123.304688 42.382812 123.625 42.796875 123.898438 C 43.207031 124.167969 43.652344 124.375 44.125 124.515625 C 44.597656 124.65625 45.082031 124.726562 45.578125 124.726562 C 46.070312 124.726562 46.554688 124.65625 47.027344 124.515625 C 47.5 124.375 47.941406 124.167969 48.355469 123.898438 C 48.769531 123.628906 49.136719 123.304688 49.453125 122.929688 C 49.773438 122.550781 50.03125 122.136719 50.230469 121.683594 L 53.785156 113.585938 C 54.058594 114.488281 54.402344 115.363281 54.816406 116.210938 C 55.226562 117.058594 55.703125 117.867188 56.246094 118.640625 C 56.789062 119.410156 57.390625 120.132812 58.046875 120.808594 C 58.703125 121.484375 59.410156 122.101562 60.167969 122.664062 C 60.925781 123.226562 61.71875 123.726562 62.554688 124.160156 C 63.394531 124.597656 64.257812 124.964844 65.152344 125.261719 C 66.046875 125.558594 66.960938 125.78125 67.890625 125.929688 C 68.820312 126.082031 69.757812 126.160156 70.699219 126.160156 L 71.695312 126.160156 C 72.03125 126.160156 72.359375 126.128906 72.6875 126.0625 C 73.015625 125.996094 73.332031 125.902344 73.640625 125.773438 C 73.949219 125.644531 74.242188 125.488281 74.519531 125.304688 C 74.796875 125.117188 75.054688 124.90625 75.289062 124.671875 C 75.527344 124.433594 75.738281 124.179688 75.921875 123.898438 C 76.109375 123.621094 76.265625 123.328125 76.394531 123.019531 C 76.519531 122.710938 76.617188 122.394531 76.683594 122.066406 C 76.746094 121.738281 76.78125 121.410156 76.78125 121.074219 L 76.78125 114.574219 L 80.050781 114.574219 C 80.160156 115.789062 80.644531 116.828125 81.507812 117.6875 L 86.125 122.347656 C 86.601562 122.824219 87.152344 123.195312 87.773438 123.457031 C 88.398438 123.71875 89.046875 123.847656 89.726562 123.851562 L 89.734375 123.851562 C 90.40625 123.851562 91.054688 123.722656 91.679688 123.464844 C 92.300781 123.207031 92.851562 122.839844 93.328125 122.363281 L 94.613281 121.074219 C 95.210938 121.367188 95.820312 121.625 96.445312 121.84375 C 97.070312 122.066406 97.707031 122.253906 98.351562 122.40625 C 99 122.554688 99.652344 122.667969 100.308594 122.746094 C 100.96875 122.824219 101.628906 122.863281 102.292969 122.867188 C 102.957031 122.867188 103.617188 122.835938 104.277344 122.761719 C 104.9375 122.691406 105.589844 122.582031 106.238281 122.4375 C 106.886719 122.292969 107.523438 122.113281 108.148438 121.894531 C 108.777344 121.679688 109.390625 121.425781 109.988281 121.140625 C 110.585938 120.855469 111.167969 120.539062 111.730469 120.1875 C 112.292969 119.835938 112.832031 119.453125 113.355469 119.042969 C 113.875 118.628906 114.367188 118.191406 114.839844 117.722656 C 115.308594 117.253906 115.753906 116.761719 116.167969 116.246094 C 116.582031 115.726562 116.96875 115.1875 117.320312 114.628906 C 117.675781 114.066406 118 113.488281 118.289062 112.890625 C 118.578125 112.292969 118.832031 111.683594 119.050781 111.054688 C 119.273438 110.429688 119.457031 109.792969 119.605469 109.148438 C 119.753906 108.503906 119.867188 107.847656 119.941406 107.191406 C 120.019531 106.53125 120.058594 105.871094 120.058594 105.207031 C 120.058594 104.542969 120.023438 103.882812 119.949219 103.222656 C 119.875 102.5625 119.765625 101.910156 119.621094 101.261719 C 119.472656 100.617188 119.289062 99.980469 119.074219 99.351562 C 118.855469 98.726562 118.601562 98.113281 118.3125 97.515625 C 118.027344 96.917969 117.707031 96.339844 117.355469 95.777344 C 117 95.214844 116.617188 94.675781 116.207031 94.15625 C 115.792969 93.636719 115.351562 93.140625 114.882812 92.671875 C 114.414062 92.203125 113.921875 91.761719 113.402344 91.347656 C 112.882812 90.933594 112.34375 90.550781 111.78125 90.199219 C 111.21875 89.84375 110.640625 89.523438 110.042969 89.238281 C 109.445312 88.949219 108.832031 88.695312 108.207031 88.476562 C 107.582031 88.257812 106.945312 88.074219 106.296875 87.929688 C 105.648438 87.78125 104.996094 87.671875 104.335938 87.597656 C 103.679688 87.523438 103.015625 87.484375 102.355469 87.484375 C 102.054688 87.484375 101.761719 87.492188 101.464844 87.507812 L 101.464844 85.246094 C 101.464844 85.21875 101.460938 85.191406 101.460938 85.164062 C 102.042969 85.140625 102.601562 85.019531 103.140625 84.800781 C 103.679688 84.585938 104.167969 84.285156 104.601562 83.898438 C 105.039062 83.515625 105.394531 83.066406 105.675781 82.558594 C 105.960938 82.050781 106.148438 81.511719 106.242188 80.9375 C 107.554688 81.449219 108.917969 81.714844 110.328125 81.734375 C 111.277344 82.546875 112.378906 82.953125 113.628906 82.949219 L 117.128906 82.949219 C 117.464844 82.949219 117.796875 82.917969 118.121094 82.851562 C 118.449219 82.789062 118.769531 82.691406 119.078125 82.5625 C 119.386719 82.4375 119.679688 82.28125 119.957031 82.09375 C 120.234375 81.910156 120.488281 81.699219 120.726562 81.460938 C 120.960938 81.226562 121.171875 80.96875 121.359375 80.691406 C 121.542969 80.414062 121.699219 80.121094 121.828125 79.8125 C 121.957031 79.503906 122.050781 79.1875 122.117188 78.859375 C 122.183594 78.53125 122.214844 78.199219 122.214844 77.867188 L 122.214844 62.136719 C 122.214844 61.804688 122.183594 61.472656 122.117188 61.144531 C 122.050781 60.816406 121.957031 60.5 121.828125 60.191406 C 121.699219 59.882812 121.542969 59.589844 121.359375 59.3125 C 121.171875 59.035156 120.960938 58.777344 120.726562 58.542969 C 120.488281 58.304688 120.234375 58.09375 119.957031 57.910156 C 119.679688 57.722656 119.386719 57.566406 119.078125 57.4375 C 118.769531 57.3125 118.449219 57.214844 118.121094 57.148438 C 117.796875 57.085938 117.464844 57.050781 117.128906 57.050781 L 113.628906 57.050781 C 112.367188 57.050781 111.257812 57.464844 110.304688 58.292969 C 108.203125 58.320312 106.253906 58.882812 104.457031 59.96875 C 103.523438 59.195312 102.449219 58.8125 101.234375 58.8125 L 97.730469 58.8125 C 96.832031 58.8125 95.992188 59.035156 95.214844 59.480469 L 92.898438 56.691406 C 92.566406 56.285156 92.179688 55.945312 91.738281 55.660156 C 91.300781 55.378906 90.828125 55.167969 90.324219 55.027344 C 89.820312 54.890625 89.304688 54.832031 88.78125 54.855469 C 88.261719 54.875 87.753906 54.972656 87.261719 55.152344 C 86.769531 55.328125 86.316406 55.578125 85.898438 55.894531 C 85.484375 56.210938 85.125 56.582031 84.824219 57.011719 C 84.523438 57.441406 84.296875 57.902344 84.136719 58.402344 C 83.980469 58.902344 83.902344 59.410156 83.902344 59.933594 Z M 88.984375 59.933594 L 97.730469 70.484375 L 97.730469 63.898438 L 100.5 63.898438 C 99.878906 64.910156 99.421875 65.996094 99.128906 67.148438 C 98.839844 68.300781 98.726562 69.472656 98.789062 70.660156 C 98.855469 71.847656 99.097656 73 99.515625 74.113281 C 99.929688 75.226562 100.503906 76.253906 101.234375 77.191406 L 101.234375 80.089844 L 92.488281 69.539062 L 92.488281 76.125 L 88.984375 76.125 Z M 78.792969 81.636719 L 72.144531 81.636719 L 72.144531 58.425781 L 78.792969 58.425781 Z M 75.488281 48.472656 C 75.75 48.472656 76.011719 48.496094 76.265625 48.546875 C 76.523438 48.597656 76.773438 48.671875 77.015625 48.773438 C 77.257812 48.871094 77.488281 48.996094 77.703125 49.140625 C 77.921875 49.285156 78.125 49.449219 78.308594 49.636719 C 78.492188 49.820312 78.660156 50.023438 78.804688 50.238281 C 78.949219 50.457031 79.070312 50.6875 79.171875 50.929688 C 79.269531 51.171875 79.34375 51.421875 79.394531 51.675781 C 79.445312 51.933594 79.472656 52.191406 79.46875 52.453125 C 79.46875 52.980469 79.367188 53.488281 79.164062 53.976562 C 78.960938 54.464844 78.671875 54.894531 78.300781 55.265625 C 77.929688 55.640625 77.496094 55.925781 77.011719 56.128906 C 76.523438 56.332031 76.015625 56.433594 75.488281 56.4375 C 75.226562 56.4375 74.96875 56.414062 74.710938 56.363281 C 74.453125 56.3125 74.207031 56.234375 73.964844 56.136719 C 73.722656 56.035156 73.492188 55.914062 73.273438 55.769531 C 73.058594 55.625 72.855469 55.457031 72.671875 55.273438 C 72.484375 55.089844 72.320312 54.886719 72.175781 54.667969 C 72.03125 54.453125 71.90625 54.222656 71.808594 53.980469 C 71.707031 53.738281 71.632812 53.488281 71.582031 53.230469 C 71.53125 52.976562 71.507812 52.714844 71.507812 52.453125 C 71.507812 52.191406 71.53125 51.933594 71.578125 51.675781 C 71.628906 51.417969 71.703125 51.167969 71.800781 50.925781 C 71.898438 50.683594 72.023438 50.453125 72.167969 50.234375 C 72.3125 50.015625 72.476562 49.8125 72.664062 49.628906 C 72.847656 49.441406 73.050781 49.277344 73.269531 49.132812 C 73.488281 48.988281 73.71875 48.867188 73.960938 48.765625 C 74.203125 48.667969 74.453125 48.59375 74.710938 48.542969 C 74.96875 48.496094 75.226562 48.472656 75.488281 48.472656 M 59.761719 58.984375 L 59.761719 55.082031 L 66.410156 55.082031 L 66.410156 84.941406 L 59.761719 84.941406 L 59.761719 81.078125 C 57.910156 82.128906 55.917969 82.648438 53.789062 82.628906 C 52.964844 82.632812 52.144531 82.554688 51.335938 82.394531 C 50.523438 82.234375 49.734375 81.996094 48.972656 81.679688 C 48.207031 81.363281 47.484375 80.976562 46.796875 80.519531 C 46.109375 80.058594 45.472656 79.539062 44.886719 78.953125 C 44.304688 78.367188 43.78125 77.734375 43.324219 77.046875 C 42.863281 76.359375 42.476562 75.632812 42.160156 74.871094 C 41.847656 74.105469 41.609375 73.316406 41.449219 72.507812 C 41.289062 71.695312 41.207031 70.878906 41.210938 70.050781 C 41.210938 68.914062 41.359375 67.796875 41.660156 66.703125 L 44.65625 61.855469 C 44.839844 61.558594 44.992188 61.246094 45.109375 60.914062 C 46.277344 59.796875 47.609375 58.933594 49.113281 58.332031 C 50.613281 57.730469 52.171875 57.429688 53.789062 57.429688 C 55.917969 57.414062 57.910156 57.933594 59.761719 58.984375 M 14.453125 55.640625 L 24.527344 71.925781 L 34.597656 55.640625 L 40.015625 58.988281 C 38.664062 60.667969 37.65625 62.535156 36.988281 64.585938 L 24.527344 84.742188 L 8.722656 59.183594 Z M 45.578125 119.644531 L 37.296875 100.730469 L 29.019531 119.644531 L 17.710938 93.882812 L 23.683594 91.21875 L 29.019531 103.398438 L 37.296875 84.488281 L 45.578125 103.398438 L 50.914062 91.21875 L 56.886719 93.882812 L 56.605469 94.519531 C 54.917969 96.75 53.824219 99.238281 53.328125 101.988281 Z M 64.851562 109.492188 C 64.972656 110.183594 65.207031 110.832031 65.554688 111.441406 C 65.902344 112.050781 66.34375 112.582031 66.878906 113.039062 C 67.414062 113.492188 68.007812 113.84375 68.664062 114.089844 C 69.324219 114.332031 70.003906 114.460938 70.703125 114.46875 L 71.699219 114.46875 L 71.699219 121.074219 L 70.703125 121.074219 C 69.878906 121.078125 69.058594 120.996094 68.246094 120.835938 C 67.4375 120.675781 66.648438 120.441406 65.886719 120.125 C 65.121094 119.808594 64.394531 119.421875 63.707031 118.960938 C 63.019531 118.503906 62.386719 117.980469 61.800781 117.398438 C 61.214844 116.8125 60.695312 116.175781 60.234375 115.488281 C 59.777344 114.800781 59.390625 114.078125 59.074219 113.3125 C 58.757812 112.550781 58.519531 111.761719 58.359375 110.949219 C 58.199219 110.140625 58.121094 109.320312 58.125 108.496094 L 58.125 105.152344 C 58.125 104.582031 58.164062 104.011719 58.242188 103.449219 L 61.03125 97.09375 C 61.621094 96.386719 62.28125 95.75 63.011719 95.183594 C 63.742188 94.621094 64.523438 94.140625 65.359375 93.75 C 66.199219 93.359375 67.066406 93.066406 67.96875 92.867188 C 68.867188 92.667969 69.78125 92.566406 70.703125 92.570312 C 71.53125 92.566406 72.351562 92.648438 73.164062 92.804688 C 73.976562 92.964844 74.765625 93.203125 75.527344 93.519531 C 76.292969 93.835938 77.019531 94.222656 77.710938 94.679688 C 78.398438 95.136719 79.035156 95.660156 79.621094 96.242188 C 80.207031 96.828125 80.730469 97.464844 81.191406 98.152344 C 81.652344 98.839844 82.042969 99.566406 82.359375 100.328125 C 82.675781 101.09375 82.917969 101.878906 83.078125 102.691406 C 83.242188 103.503906 83.324219 104.324219 83.324219 105.152344 L 83.324219 108.710938 L 82.546875 109.492188 Z M 102.359375 92.574219 C 102.867188 92.570312 103.375 92.601562 103.878906 92.664062 C 104.386719 92.722656 104.886719 92.8125 105.378906 92.9375 C 105.875 93.058594 106.359375 93.207031 106.835938 93.386719 C 107.3125 93.570312 107.777344 93.777344 108.226562 94.011719 C 108.679688 94.25 109.113281 94.511719 109.53125 94.800781 C 109.953125 95.089844 110.351562 95.40625 110.734375 95.742188 C 111.113281 96.078125 111.472656 96.4375 111.8125 96.820312 C 112.148438 97.203125 112.460938 97.601562 112.75 98.019531 C 113.039062 98.441406 113.304688 98.875 113.539062 99.328125 C 113.777344 99.777344 113.984375 100.242188 114.164062 100.71875 C 114.34375 101.195312 114.496094 101.679688 114.617188 102.175781 C 114.738281 102.667969 114.828125 103.167969 114.886719 103.675781 C 114.949219 104.179688 114.976562 104.6875 114.976562 105.199219 C 114.976562 105.707031 114.945312 106.214844 114.882812 106.71875 C 114.820312 107.226562 114.726562 107.722656 114.605469 108.21875 C 114.480469 108.710938 114.328125 109.199219 114.144531 109.671875 C 113.964844 110.148438 113.753906 110.613281 113.515625 111.0625 C 113.277344 111.511719 113.015625 111.945312 112.722656 112.363281 C 112.433594 112.78125 112.117188 113.183594 111.777344 113.5625 C 111.441406 113.941406 111.078125 114.300781 110.695312 114.636719 C 110.316406 114.972656 109.914062 115.285156 109.492188 115.570312 C 109.074219 115.859375 108.636719 116.121094 108.183594 116.355469 C 107.734375 116.589844 107.269531 116.796875 106.792969 116.976562 C 106.3125 117.152344 105.828125 117.300781 105.332031 117.421875 C 104.839844 117.542969 104.339844 117.628906 103.832031 117.6875 C 103.328125 117.75 102.820312 117.777344 102.308594 117.773438 C 101.800781 117.769531 101.292969 117.738281 100.789062 117.671875 C 100.28125 117.609375 99.785156 117.515625 99.289062 117.390625 C 98.796875 117.265625 98.3125 117.109375 97.835938 116.925781 C 97.363281 116.742188 96.898438 116.53125 96.449219 116.292969 C 96 116.054688 95.566406 115.789062 95.148438 115.496094 C 94.734375 115.203125 94.335938 114.886719 93.957031 114.546875 L 89.734375 118.765625 L 85.210938 114.207031 C 85.910156 113.925781 86.515625 113.511719 87.03125 112.964844 C 87.546875 112.414062 87.917969 111.785156 88.152344 111.070312 L 89.734375 109.492188 L 89.734375 85.246094 L 96.382812 85.246094 L 96.382812 94.125 C 98.234375 93.070312 100.226562 92.554688 102.355469 92.570312 M 117.132812 77.867188 L 113.628906 77.867188 L 113.628906 75.832031 C 112.65625 76.382812 111.605469 76.65625 110.484375 76.648438 C 108.921875 76.652344 107.53125 76.160156 106.320312 75.179688 L 106.320312 64.851562 C 107.53125 63.863281 108.917969 63.371094 110.484375 63.371094 C 111.605469 63.363281 112.65625 63.636719 113.628906 64.191406 L 113.628906 62.136719 L 117.132812 62.136719 Z M 117.132812 77.867188 " fill-opacity="1" fill-rule="nonzero"/></g><path fill="#0cc0df" d="M 24.527344 71.921875 L 34.597656 55.636719 L 40.332031 59.179688 L 24.527344 84.742188 L 8.722656 59.183594 L 14.457031 55.640625 Z M 24.527344 71.921875 " fill-opacity="1" fill-rule="nonzero"/><path fill="#0cc0df" d="M 66.410156 55.082031 L 66.410156 84.941406 L 59.761719 84.941406 L 59.761719 81.078125 C 57.910156 82.128906 55.917969 82.644531 53.789062 82.628906 C 52.964844 82.632812 52.144531 82.550781 51.335938 82.390625 C 50.523438 82.230469 49.734375 81.996094 48.972656 81.679688 C 48.207031 81.363281 47.484375 80.976562 46.796875 80.519531 C 46.109375 80.058594 45.472656 79.539062 44.886719 78.953125 C 44.304688 78.367188 43.78125 77.734375 43.324219 77.046875 C 42.863281 76.359375 42.476562 75.632812 42.160156 74.867188 C 41.847656 74.105469 41.609375 73.316406 41.449219 72.507812 C 41.289062 71.695312 41.207031 70.878906 41.210938 70.050781 C 41.207031 69.222656 41.285156 68.402344 41.445312 67.59375 C 41.605469 66.78125 41.84375 65.992188 42.160156 65.226562 C 42.472656 64.460938 42.859375 63.734375 43.320312 63.046875 C 43.777344 62.355469 44.300781 61.71875 44.882812 61.132812 C 45.46875 60.546875 46.101562 60.023438 46.789062 59.5625 C 47.476562 59.101562 48.203125 58.710938 48.96875 58.394531 C 49.730469 58.078125 50.519531 57.835938 51.332031 57.675781 C 52.144531 57.511719 52.960938 57.433594 53.789062 57.429688 C 55.917969 57.414062 57.910156 57.933594 59.761719 58.984375 L 59.761719 55.082031 Z M 47.859375 70.050781 C 47.855469 70.441406 47.890625 70.828125 47.964844 71.210938 C 48.039062 71.59375 48.152344 71.964844 48.300781 72.328125 C 48.449219 72.6875 48.628906 73.03125 48.847656 73.355469 C 49.0625 73.679688 49.308594 73.980469 49.585938 74.257812 C 49.859375 74.53125 50.160156 74.777344 50.484375 74.996094 C 50.8125 75.210938 51.152344 75.394531 51.515625 75.542969 C 51.875 75.691406 52.246094 75.800781 52.628906 75.875 C 53.011719 75.949219 53.398438 75.984375 53.789062 75.984375 C 54.179688 75.984375 54.570312 75.949219 54.953125 75.875 C 55.335938 75.800781 55.710938 75.691406 56.074219 75.542969 C 56.433594 75.394531 56.777344 75.214844 57.105469 75 C 57.433594 74.78125 57.734375 74.535156 58.011719 74.261719 C 58.289062 73.984375 58.535156 73.683594 58.753906 73.359375 C 58.972656 73.035156 59.15625 72.691406 59.308594 72.332031 C 59.457031 71.96875 59.570312 71.597656 59.648438 71.214844 C 59.722656 70.832031 59.761719 70.441406 59.761719 70.050781 C 59.761719 69.660156 59.726562 69.269531 59.648438 68.886719 C 59.574219 68.5 59.460938 68.128906 59.308594 67.765625 C 59.160156 67.402344 58.976562 67.058594 58.757812 66.730469 C 58.539062 66.40625 58.292969 66.105469 58.015625 65.828125 C 57.738281 65.550781 57.4375 65.300781 57.109375 65.082031 C 56.785156 64.867188 56.4375 64.683594 56.078125 64.53125 C 55.714844 64.382812 55.339844 64.269531 54.957031 64.191406 C 54.570312 64.117188 54.183594 64.078125 53.789062 64.078125 C 53.398438 64.078125 53.011719 64.117188 52.628906 64.195312 C 52.242188 64.269531 51.871094 64.382812 51.511719 64.535156 C 51.148438 64.683594 50.804688 64.867188 50.480469 65.085938 C 50.15625 65.304688 49.855469 65.554688 49.582031 65.832031 C 49.304688 66.109375 49.058594 66.410156 48.84375 66.734375 C 48.628906 67.0625 48.445312 67.40625 48.296875 67.769531 C 48.148438 68.132812 48.039062 68.503906 47.964844 68.886719 C 47.890625 69.273438 47.855469 69.660156 47.859375 70.050781 " fill-opacity="1" fill-rule="nonzero"/><path fill="#0cc0df" d="M 75.488281 56.433594 C 75.226562 56.433594 74.96875 56.410156 74.710938 56.359375 C 74.457031 56.308594 74.207031 56.234375 73.964844 56.132812 C 73.722656 56.035156 73.492188 55.910156 73.277344 55.765625 C 73.058594 55.621094 72.855469 55.457031 72.671875 55.273438 C 72.488281 55.085938 72.320312 54.886719 72.175781 54.667969 C 72.03125 54.449219 71.910156 54.222656 71.808594 53.980469 C 71.710938 53.738281 71.632812 53.488281 71.582031 53.230469 C 71.535156 52.976562 71.507812 52.714844 71.507812 52.453125 C 71.507812 52.191406 71.53125 51.933594 71.578125 51.675781 C 71.628906 51.417969 71.703125 51.167969 71.800781 50.925781 C 71.902344 50.683594 72.023438 50.453125 72.167969 50.234375 C 72.3125 50.015625 72.480469 49.816406 72.664062 49.628906 C 72.847656 49.445312 73.050781 49.277344 73.269531 49.132812 C 73.488281 48.988281 73.71875 48.867188 73.960938 48.769531 C 74.203125 48.667969 74.453125 48.59375 74.710938 48.546875 C 74.96875 48.496094 75.226562 48.472656 75.488281 48.476562 C 75.75 48.472656 76.011719 48.5 76.265625 48.550781 C 76.523438 48.597656 76.773438 48.675781 77.015625 48.773438 C 77.257812 48.875 77.488281 48.996094 77.703125 49.140625 C 77.921875 49.285156 78.125 49.453125 78.308594 49.636719 C 78.492188 49.820312 78.660156 50.023438 78.804688 50.238281 C 78.949219 50.457031 79.070312 50.6875 79.171875 50.929688 C 79.269531 51.171875 79.347656 51.421875 79.394531 51.675781 C 79.445312 51.933594 79.472656 52.191406 79.472656 52.453125 C 79.46875 52.980469 79.367188 53.488281 79.164062 53.976562 C 78.960938 54.460938 78.671875 54.890625 78.300781 55.265625 C 77.925781 55.636719 77.496094 55.925781 77.011719 56.128906 C 76.523438 56.328125 76.015625 56.429688 75.488281 56.433594 M 78.792969 81.636719 L 72.144531 81.636719 L 72.144531 58.425781 L 78.792969 58.425781 Z M 78.792969 81.636719 " fill-opacity="1" fill-rule="nonzero"/><path fill="#0cc0df" d="M 29.019531 103.398438 L 37.296875 84.488281 L 45.578125 103.398438 L 50.914062 91.21875 L 56.886719 93.882812 L 45.578125 119.640625 L 37.296875 100.730469 L 29.019531 119.640625 L 17.710938 93.882812 L 23.683594 91.21875 Z M 29.019531 103.398438 " fill-opacity="1" fill-rule="nonzero"/><path fill="#0cc0df" d="M 70.703125 114.464844 L 71.699219 114.464844 L 71.699219 121.074219 L 70.703125 121.074219 C 69.878906 121.078125 69.058594 120.996094 68.246094 120.835938 C 67.4375 120.675781 66.648438 120.441406 65.886719 120.125 C 65.121094 119.808594 64.394531 119.421875 63.707031 118.960938 C 63.019531 118.503906 62.386719 117.980469 61.800781 117.398438 C 61.214844 116.8125 60.695312 116.175781 60.234375 115.488281 C 59.777344 114.800781 59.390625 114.078125 59.074219 113.3125 C 58.757812 112.546875 58.519531 111.761719 58.359375 110.949219 C 58.199219 110.140625 58.121094 109.320312 58.125 108.496094 L 58.125 105.148438 C 58.121094 104.324219 58.199219 103.503906 58.359375 102.695312 C 58.519531 101.882812 58.757812 101.097656 59.074219 100.332031 C 59.390625 99.570312 59.777344 98.84375 60.234375 98.15625 C 60.695312 97.46875 61.214844 96.832031 61.800781 96.246094 C 62.386719 95.664062 63.019531 95.140625 63.707031 94.683594 C 64.394531 94.222656 65.121094 93.835938 65.886719 93.519531 C 66.648438 93.207031 67.4375 92.96875 68.246094 92.808594 C 69.058594 92.648438 69.878906 92.570312 70.703125 92.570312 C 71.53125 92.566406 72.351562 92.648438 73.164062 92.804688 C 73.976562 92.964844 74.761719 93.203125 75.527344 93.519531 C 76.292969 93.832031 77.019531 94.222656 77.710938 94.679688 C 78.398438 95.136719 79.035156 95.660156 79.621094 96.242188 C 80.207031 96.828125 80.730469 97.464844 81.191406 98.152344 C 81.652344 98.839844 82.042969 99.5625 82.359375 100.328125 C 82.675781 101.09375 82.917969 101.878906 83.078125 102.691406 C 83.242188 103.503906 83.324219 104.324219 83.324219 105.148438 L 83.324219 109.488281 L 64.851562 109.488281 C 64.972656 110.179688 65.207031 110.832031 65.554688 111.441406 C 65.902344 112.050781 66.34375 112.582031 66.878906 113.035156 C 67.414062 113.488281 68.007812 113.839844 68.664062 114.085938 C 69.324219 114.332031 70.003906 114.457031 70.703125 114.464844 M 70.742188 99.179688 C 70.15625 99.179688 69.582031 99.265625 69.019531 99.4375 C 68.460938 99.609375 67.933594 99.859375 67.445312 100.183594 C 66.957031 100.507812 66.527344 100.898438 66.152344 101.351562 C 65.777344 101.804688 65.476562 102.300781 65.25 102.84375 L 76.199219 102.84375 C 75.96875 102.304688 75.667969 101.8125 75.296875 101.363281 C 74.925781 100.914062 74.496094 100.527344 74.011719 100.203125 C 73.53125 99.878906 73.007812 99.628906 72.453125 99.453125 C 71.894531 99.277344 71.328125 99.1875 70.742188 99.179688 " fill-opacity="1" fill-rule="nonzero"/><path fill="#0cc0df" d="M 102.355469 92.570312 C 103.183594 92.566406 104.003906 92.648438 104.816406 92.804688 C 105.628906 92.964844 106.417969 93.203125 107.179688 93.519531 C 107.945312 93.832031 108.671875 94.222656 109.363281 94.679688 C 110.050781 95.136719 110.6875 95.660156 111.273438 96.242188 C 111.859375 96.828125 112.382812 97.464844 112.84375 98.152344 C 113.304688 98.839844 113.695312 99.566406 114.011719 100.328125 C 114.332031 101.09375 114.570312 101.878906 114.730469 102.691406 C 114.894531 103.503906 114.976562 104.324219 114.976562 105.152344 C 114.976562 105.980469 114.894531 106.800781 114.734375 107.613281 C 114.570312 108.425781 114.332031 109.214844 114.015625 109.980469 C 113.699219 110.746094 113.308594 111.472656 112.847656 112.164062 C 112.390625 112.851562 111.867188 113.488281 111.28125 114.074219 C 110.695312 114.660156 110.054688 115.183594 109.367188 115.644531 C 108.679688 116.105469 107.953125 116.496094 107.1875 116.8125 C 106.421875 117.128906 105.632812 117.367188 104.820312 117.53125 C 104.003906 117.691406 103.183594 117.773438 102.355469 117.773438 C 100.804688 117.773438 99.304688 117.496094 97.855469 116.941406 C 96.40625 116.382812 95.105469 115.585938 93.957031 114.546875 L 89.734375 118.765625 L 85.117188 114.109375 L 89.734375 109.488281 L 89.734375 85.246094 L 96.382812 85.246094 L 96.382812 94.125 C 98.234375 93.070312 100.226562 92.554688 102.355469 92.570312 M 96.382812 105.1875 C 96.382812 105.582031 96.421875 105.96875 96.5 106.351562 C 96.574219 106.734375 96.6875 107.109375 96.839844 107.46875 C 96.988281 107.828125 97.171875 108.171875 97.390625 108.496094 C 97.609375 108.824219 97.859375 109.121094 98.136719 109.398438 C 98.414062 109.675781 98.714844 109.921875 99.039062 110.136719 C 99.367188 110.351562 99.710938 110.535156 100.074219 110.683594 C 100.4375 110.828125 100.808594 110.941406 101.191406 111.015625 C 101.578125 111.089844 101.964844 111.125 102.355469 111.121094 C 102.746094 111.125 103.136719 111.089844 103.519531 111.015625 C 103.902344 110.941406 104.277344 110.828125 104.640625 110.679688 C 105 110.535156 105.34375 110.351562 105.671875 110.136719 C 105.996094 109.917969 106.300781 109.675781 106.578125 109.398438 C 106.855469 109.121094 107.101562 108.824219 107.320312 108.496094 C 107.539062 108.171875 107.722656 107.828125 107.871094 107.46875 C 108.023438 107.109375 108.136719 106.734375 108.214844 106.351562 C 108.289062 105.96875 108.328125 105.582031 108.328125 105.1875 C 108.328125 104.796875 108.289062 104.410156 108.214844 104.023438 C 108.136719 103.636719 108.023438 103.265625 107.875 102.902344 C 107.726562 102.539062 107.542969 102.195312 107.324219 101.871094 C 107.105469 101.542969 106.859375 101.242188 106.582031 100.964844 C 106.304688 100.6875 106 100.4375 105.675781 100.222656 C 105.347656 100.003906 105.003906 99.820312 104.640625 99.667969 C 104.28125 99.519531 103.90625 99.40625 103.519531 99.332031 C 103.136719 99.253906 102.746094 99.214844 102.355469 99.21875 C 101.964844 99.214844 101.574219 99.253906 101.191406 99.332031 C 100.804688 99.40625 100.429688 99.519531 100.070312 99.667969 C 99.707031 99.820312 99.363281 100.003906 99.035156 100.222656 C 98.710938 100.4375 98.40625 100.6875 98.128906 100.964844 C 97.851562 101.242188 97.605469 101.542969 97.386719 101.871094 C 97.171875 102.195312 96.988281 102.539062 96.835938 102.902344 C 96.6875 103.265625 96.574219 103.640625 96.496094 104.023438 C 96.421875 104.410156 96.382812 104.796875 96.382812 105.1875 " fill-opacity="1" fill-rule="nonzero"/><path fill="#139799" d="M 101.234375 80.089844 L 92.488281 69.539062 L 92.488281 76.125 L 88.984375 76.125 L 88.984375 59.933594 L 97.730469 70.484375 L 97.730469 63.898438 L 101.234375 63.898438 Z M 101.234375 80.089844 " fill-opacity="1" fill-rule="nonzero"/><path fill="#139799" d="M 117.132812 62.136719 L 117.132812 77.867188 L 113.632812 77.867188 L 113.632812 75.832031 C 112.65625 76.386719 111.609375 76.65625 110.488281 76.648438 C 110.050781 76.648438 109.621094 76.609375 109.191406 76.523438 C 108.765625 76.441406 108.351562 76.316406 107.949219 76.148438 C 107.546875 75.980469 107.164062 75.777344 106.800781 75.535156 C 106.4375 75.296875 106.101562 75.019531 105.796875 74.710938 C 105.488281 74.40625 105.210938 74.070312 104.972656 73.707031 C 104.730469 73.34375 104.523438 72.964844 104.359375 72.558594 C 104.191406 72.15625 104.066406 71.742188 103.984375 71.316406 C 103.898438 70.890625 103.855469 70.457031 103.855469 70.023438 C 103.855469 69.585938 103.898438 69.152344 103.980469 68.726562 C 104.066406 68.296875 104.191406 67.882812 104.355469 67.480469 C 104.523438 67.078125 104.726562 66.695312 104.96875 66.332031 C 105.210938 65.96875 105.484375 65.632812 105.792969 65.324219 C 106.101562 65.015625 106.4375 64.738281 106.796875 64.496094 C 107.160156 64.253906 107.542969 64.046875 107.945312 63.882812 C 108.347656 63.714844 108.765625 63.585938 109.191406 63.503906 C 109.617188 63.417969 110.050781 63.375 110.488281 63.375 C 111.609375 63.363281 112.65625 63.636719 113.632812 64.191406 L 113.632812 62.136719 Z M 107.359375 70.023438 C 107.355469 70.4375 107.433594 70.835938 107.59375 71.222656 C 107.75 71.605469 107.976562 71.945312 108.269531 72.238281 C 108.5625 72.53125 108.902344 72.757812 109.289062 72.914062 C 109.671875 73.074219 110.070312 73.148438 110.488281 73.148438 C 110.902344 73.148438 111.304688 73.074219 111.691406 72.914062 C 112.074219 72.757812 112.414062 72.53125 112.710938 72.238281 C 113.007812 71.945312 113.234375 71.605469 113.394531 71.222656 C 113.554688 70.839844 113.632812 70.4375 113.632812 70.023438 C 113.632812 69.605469 113.554688 69.203125 113.394531 68.816406 C 113.234375 68.429688 113.007812 68.089844 112.710938 67.796875 C 112.417969 67.5 112.078125 67.273438 111.691406 67.113281 C 111.304688 66.953125 110.902344 66.875 110.488281 66.875 C 110.070312 66.875 109.671875 66.957031 109.285156 67.117188 C 108.902344 67.277344 108.5625 67.503906 108.269531 67.796875 C 107.976562 68.09375 107.75 68.433594 107.59375 68.820312 C 107.4375 69.203125 107.359375 69.605469 107.363281 70.023438 " fill-opacity="1" fill-rule="nonzero"/><g fill="#0cc0df" fill-opacity="1"><g transform="translate(7.784538, 33.807464)"><g><path d="M 7.1875 -8.390625 L 7.1875 0 L 2.703125 0 L 2.703125 -21.859375 L 17.21875 -21.859375 L 17.21875 -17.828125 L 7.1875 -17.828125 L 7.1875 -12.4375 L 14.984375 -12.4375 L 14.984375 -8.390625 Z M 7.1875 -8.390625 "/></g></g></g><g fill="#0cc0df" fill-opacity="1"><g transform="translate(23.322597, 33.807464)"><g><path d="M 10.328125 -12.4375 C 9.734375 -12.4375 9.195312 -12.285156 8.71875 -11.984375 C 8.238281 -11.679688 7.828125 -11.351562 7.484375 -11 C 7.085938 -10.570312 6.738281 -10.097656 6.4375 -9.578125 L 6.4375 0 L 2.09375 0 L 2.09375 -15.875 L 6.296875 -15.875 L 6.4375 -13.484375 L 6.59375 -13.484375 C 6.832031 -13.992188 7.148438 -14.460938 7.546875 -14.890625 C 7.890625 -15.242188 8.320312 -15.570312 8.84375 -15.875 C 9.375 -16.175781 10.019531 -16.328125 10.78125 -16.328125 C 11.34375 -16.328125 11.828125 -16.25 12.234375 -16.09375 C 12.640625 -15.945312 12.984375 -15.796875 13.265625 -15.640625 C 13.585938 -15.441406 13.859375 -15.222656 14.078125 -14.984375 L 13.171875 -11.5 C 12.992188 -11.65625 12.765625 -11.804688 12.484375 -11.953125 C 12.242188 -12.066406 11.941406 -12.175781 11.578125 -12.28125 C 11.222656 -12.382812 10.804688 -12.4375 10.328125 -12.4375 Z M 10.328125 -12.4375 "/></g></g></g><g fill="#0cc0df" fill-opacity="1"><g transform="translate(34.66893, 33.807464)"><g><path d="M 5.84375 -7.9375 C 5.84375 -7.257812 5.957031 -6.644531 6.1875 -6.09375 C 6.414062 -5.539062 6.722656 -5.070312 7.109375 -4.6875 C 7.503906 -4.300781 7.960938 -3.992188 8.484375 -3.765625 C 9.015625 -3.546875 9.582031 -3.4375 10.1875 -3.4375 C 10.78125 -3.4375 11.34375 -3.546875 11.875 -3.765625 C 12.40625 -3.992188 12.863281 -4.300781 13.25 -4.6875 C 13.644531 -5.070312 13.957031 -5.539062 14.1875 -6.09375 C 14.414062 -6.644531 14.53125 -7.257812 14.53125 -7.9375 C 14.53125 -8.613281 14.414062 -9.226562 14.1875 -9.78125 C 13.957031 -10.332031 13.644531 -10.800781 13.25 -11.1875 C 12.863281 -11.570312 12.40625 -11.875 11.875 -12.09375 C 11.34375 -12.320312 10.78125 -12.4375 10.1875 -12.4375 C 9.582031 -12.4375 9.015625 -12.320312 8.484375 -12.09375 C 7.960938 -11.875 7.503906 -11.570312 7.109375 -11.1875 C 6.722656 -10.800781 6.414062 -10.332031 6.1875 -9.78125 C 5.957031 -9.226562 5.84375 -8.613281 5.84375 -7.9375 Z M 19.015625 -7.9375 C 19.015625 -6.738281 18.804688 -5.625 18.390625 -4.59375 C 17.972656 -3.570312 17.382812 -2.6875 16.625 -1.9375 C 15.863281 -1.1875 14.929688 -0.597656 13.828125 -0.171875 C 12.734375 0.242188 11.519531 0.453125 10.1875 0.453125 C 8.820312 0.453125 7.59375 0.242188 6.5 -0.171875 C 5.414062 -0.597656 4.492188 -1.1875 3.734375 -1.9375 C 2.984375 -2.6875 2.394531 -3.570312 1.96875 -4.59375 C 1.550781 -5.625 1.34375 -6.738281 1.34375 -7.9375 C 1.34375 -9.132812 1.550781 -10.242188 1.96875 -11.265625 C 2.394531 -12.285156 2.984375 -13.164062 3.734375 -13.90625 C 4.492188 -14.65625 5.414062 -15.242188 6.5 -15.671875 C 7.59375 -16.109375 8.820312 -16.328125 10.1875 -16.328125 C 11.519531 -16.328125 12.734375 -16.109375 13.828125 -15.671875 C 14.929688 -15.242188 15.863281 -14.65625 16.625 -13.90625 C 17.382812 -13.164062 17.972656 -12.285156 18.390625 -11.265625 C 18.804688 -10.242188 19.015625 -9.132812 19.015625 -7.9375 Z M 19.015625 -7.9375 "/></g></g></g><g fill="#0cc0df" fill-opacity="1"><g transform="translate(52.003451, 33.807464)"><g><path d="M 13.328125 0 L 13.328125 -9.4375 C 13.328125 -10.414062 13.050781 -11.160156 12.5 -11.671875 C 11.957031 -12.179688 11.234375 -12.4375 10.328125 -12.4375 C 9.773438 -12.4375 9.257812 -12.34375 8.78125 -12.15625 C 8.300781 -11.976562 7.890625 -11.71875 7.546875 -11.375 C 7.203125 -11.039062 6.929688 -10.632812 6.734375 -10.15625 C 6.535156 -9.675781 6.4375 -9.132812 6.4375 -8.53125 L 6.4375 0 L 2.09375 0 L 2.09375 -15.875 L 6.296875 -15.875 L 6.4375 -13.625 L 6.59375 -13.625 C 6.875 -14.125 7.242188 -14.578125 7.703125 -14.984375 C 8.097656 -15.316406 8.609375 -15.625 9.234375 -15.90625 C 9.867188 -16.1875 10.632812 -16.328125 11.53125 -16.328125 C 13.40625 -16.328125 14.894531 -15.757812 16 -14.625 C 17.113281 -13.5 17.671875 -11.921875 17.671875 -9.890625 L 17.671875 0 Z M 13.328125 0 "/></g></g></g><g fill="#0cc0df" fill-opacity="1"><g transform="translate(68.589452, 33.807464)"><g><path d="M 3 -11.984375 L 0.296875 -11.984375 L 0.296875 -13.171875 L 7.1875 -20.515625 L 7.34375 -20.515625 L 7.34375 -15.875 L 12.125 -15.875 L 12.125 -11.984375 L 7.34375 -11.984375 L 7.34375 -5.84375 C 7.34375 -5 7.546875 -4.382812 7.953125 -4 C 8.359375 -3.625 8.898438 -3.4375 9.578125 -3.4375 C 9.984375 -3.4375 10.34375 -3.488281 10.65625 -3.59375 C 10.976562 -3.695312 11.25 -3.816406 11.46875 -3.953125 C 11.707031 -4.109375 11.925781 -4.289062 12.125 -4.5 L 12.578125 -4.5 L 12.578125 -0.90625 C 12.253906 -0.644531 11.894531 -0.410156 11.5 -0.203125 C 11.164062 -0.046875 10.75 0.0976562 10.25 0.234375 C 9.75 0.378906 9.175781 0.453125 8.53125 0.453125 C 7.71875 0.453125 6.96875 0.316406 6.28125 0.046875 C 5.601562 -0.222656 5.019531 -0.617188 4.53125 -1.140625 C 4.039062 -1.660156 3.660156 -2.289062 3.390625 -3.03125 C 3.128906 -3.769531 3 -4.609375 3 -5.546875 Z M 3 -11.984375 "/></g></g></g><g fill="#0cc0df" fill-opacity="1"><g transform="translate(79.486668, 33.807464)"><g><path d="M 2.703125 -21.859375 L 17.21875 -21.859375 L 17.21875 -17.828125 L 7.1875 -17.828125 L 7.1875 -13.03125 L 14.984375 -13.03125 L 14.984375 -8.984375 L 7.1875 -8.984375 L 7.1875 -4.046875 L 17.21875 -4.046875 L 17.21875 0 L 2.703125 0 Z M 2.703125 -21.859375 "/></g></g></g><g fill="#0cc0df" fill-opacity="1"><g transform="translate(95.62355, 33.807464)"><g><path d="M 13.328125 0 L 13.328125 -9.4375 C 13.328125 -10.414062 13.050781 -11.160156 12.5 -11.671875 C 11.957031 -12.179688 11.234375 -12.4375 10.328125 -12.4375 C 9.773438 -12.4375 9.257812 -12.34375 8.78125 -12.15625 C 8.300781 -11.976562 7.890625 -11.71875 7.546875 -11.375 C 7.203125 -11.039062 6.929688 -10.632812 6.734375 -10.15625 C 6.535156 -9.675781 6.4375 -9.132812 6.4375 -8.53125 L 6.4375 0 L 2.09375 0 L 2.09375 -15.875 L 6.296875 -15.875 L 6.4375 -13.625 L 6.59375 -13.625 C 6.875 -14.125 7.242188 -14.578125 7.703125 -14.984375 C 8.097656 -15.316406 8.609375 -15.625 9.234375 -15.90625 C 9.867188 -16.1875 10.632812 -16.328125 11.53125 -16.328125 C 13.40625 -16.328125 14.894531 -15.757812 16 -14.625 C 17.113281 -13.5 17.671875 -11.921875 17.671875 -9.890625 L 17.671875 0 Z M 13.328125 0 "/></g></g></g><g fill="#0cc0df" fill-opacity="1"><g transform="translate(112.20955, 33.807464)"><g><path d="M 14.375 -7.9375 C 14.375 -8.613281 14.257812 -9.226562 14.03125 -9.78125 C 13.800781 -10.332031 13.492188 -10.800781 13.109375 -11.1875 C 12.734375 -11.570312 12.289062 -11.875 11.78125 -12.09375 C 11.269531 -12.320312 10.738281 -12.4375 10.1875 -12.4375 C 9.582031 -12.4375 9.015625 -12.320312 8.484375 -12.09375 C 7.960938 -11.875 7.503906 -11.570312 7.109375 -11.1875 C 6.722656 -10.800781 6.414062 -10.332031 6.1875 -9.78125 C 5.957031 -9.226562 5.84375 -8.613281 5.84375 -7.9375 C 5.84375 -7.257812 5.957031 -6.644531 6.1875 -6.09375 C 6.414062 -5.539062 6.722656 -5.070312 7.109375 -4.6875 C 7.503906 -4.300781 7.960938 -3.992188 8.484375 -3.765625 C 9.015625 -3.546875 9.582031 -3.4375 10.1875 -3.4375 C 10.738281 -3.4375 11.269531 -3.546875 11.78125 -3.765625 C 12.289062 -3.992188 12.734375 -4.300781 13.109375 -4.6875 C 13.492188 -5.070312 13.800781 -5.539062 14.03125 -6.09375 C 14.257812 -6.644531 14.375 -7.257812 14.375 -7.9375 Z M 14.375 -22.765625 L 18.71875 -22.765625 L 18.71875 0 L 14.53125 0 L 14.375 -2.25 L 14.234375 -2.25 C 13.910156 -1.726562 13.5 -1.28125 13 -0.90625 C 12.582031 -0.5625 12.039062 -0.25 11.375 0.03125 C 10.71875 0.3125 9.921875 0.453125 8.984375 0.453125 C 7.929688 0.453125 6.941406 0.25 6.015625 -0.15625 C 5.097656 -0.570312 4.289062 -1.148438 3.59375 -1.890625 C 2.894531 -2.628906 2.34375 -3.507812 1.9375 -4.53125 C 1.539062 -5.5625 1.34375 -6.695312 1.34375 -7.9375 C 1.34375 -9.175781 1.539062 -10.304688 1.9375 -11.328125 C 2.34375 -12.359375 2.894531 -13.242188 3.59375 -13.984375 C 4.289062 -14.722656 5.097656 -15.296875 6.015625 -15.703125 C 6.941406 -16.117188 7.929688 -16.328125 8.984375 -16.328125 C 9.921875 -16.328125 10.71875 -16.1875 11.375 -15.90625 C 12.039062 -15.625 12.582031 -15.316406 13 -14.984375 C 13.5 -14.578125 13.910156 -14.125 14.234375 -13.625 L 14.375 -13.625 Z M 14.375 -22.765625 "/></g></g></g></svg>